<svg width="162" height="33" viewBox="0 0 162 33" fill="none" xmlns="http://www.w3.org/2000/svg">
<g filter="url(#filter0_d_1176_5859)">
<path d="M13.983 21.22C13.147 21.22 12.3697 21.11 11.651 20.89C10.947 20.67 10.3017 20.34 9.715 19.9C9.143 19.4453 8.62966 18.888 8.175 18.228L9.803 16.358C10.5217 17.3847 11.211 18.096 11.871 18.492C12.531 18.888 13.3157 19.086 14.225 19.086C14.7823 19.086 15.2883 18.998 15.743 18.822C16.1977 18.646 16.557 18.404 16.821 18.096C17.085 17.788 17.217 17.436 17.217 17.04C17.217 16.776 17.173 16.5267 17.085 16.292C16.997 16.0573 16.8577 15.8447 16.667 15.654C16.491 15.4633 16.2563 15.2873 15.963 15.126C15.6843 14.9647 15.3543 14.8253 14.973 14.708C14.5917 14.576 14.1517 14.466 13.653 14.378C12.861 14.2167 12.1717 14.004 11.585 13.74C10.9983 13.476 10.507 13.146 10.111 12.75C9.715 12.354 9.42166 11.9067 9.231 11.408C9.04033 10.8947 8.945 10.3227 8.945 9.692C8.945 9.076 9.077 8.504 9.341 7.976C9.61966 7.448 9.99366 6.99333 10.463 6.612C10.947 6.216 11.5117 5.91533 12.157 5.71C12.8023 5.49 13.499 5.38 14.247 5.38C15.039 5.38 15.765 5.48267 16.425 5.688C17.085 5.89333 17.6717 6.20133 18.185 6.612C18.6983 7.008 19.1237 7.49933 19.461 8.086L17.789 9.736C17.4957 9.252 17.1657 8.84867 16.799 8.526C16.4323 8.18867 16.029 7.93933 15.589 7.778C15.149 7.602 14.6797 7.514 14.181 7.514C13.609 7.514 13.1103 7.602 12.685 7.778C12.2597 7.954 11.9223 8.20333 11.673 8.526C11.4383 8.834 11.321 9.20067 11.321 9.626C11.321 9.934 11.3797 10.22 11.497 10.484C11.6143 10.7333 11.7903 10.9607 12.025 11.166C12.2743 11.3567 12.6043 11.5327 13.015 11.694C13.4257 11.8407 13.917 11.9727 14.489 12.09C15.2957 12.266 16.0143 12.4933 16.645 12.772C17.2757 13.036 17.811 13.3513 18.251 13.718C18.691 14.0847 19.021 14.4953 19.241 14.95C19.4757 15.4047 19.593 15.896 19.593 16.424C19.593 17.4067 19.3657 18.2573 18.911 18.976C18.4563 19.6947 17.811 20.252 16.975 20.648C16.139 21.0293 15.1417 21.22 13.983 21.22ZM27.9535 21L33.9155 5.6H36.3355L42.2535 21H39.7235L36.2035 11.716C36.1595 11.6133 36.0715 11.364 35.9395 10.968C35.8222 10.572 35.6828 10.132 35.5215 9.648C35.3602 9.164 35.2135 8.724 35.0815 8.328C34.9495 7.91733 34.8615 7.65333 34.8175 7.536L35.3235 7.514C35.2355 7.76333 35.1255 8.07867 34.9935 8.46C34.8762 8.84133 34.7442 9.24467 34.5975 9.67C34.4655 10.0953 34.3335 10.4987 34.2015 10.88C34.0695 11.2467 33.9595 11.5547 33.8715 11.804L30.3735 21H27.9535ZM30.5935 17.172L31.4735 14.884H38.4695L39.4815 17.172H30.5935ZM54.4415 21L48.2815 5.6H50.9875L54.6615 14.95C54.8375 15.4047 54.9915 15.8153 55.1235 16.182C55.2702 16.5487 55.3948 16.886 55.4975 17.194C55.6002 17.4873 55.6955 17.766 55.7835 18.03C55.8715 18.294 55.9595 18.558 56.0475 18.822L55.4755 18.844C55.5782 18.492 55.6882 18.1253 55.8055 17.744C55.9228 17.3627 56.0548 16.9447 56.2015 16.49C56.3628 16.0353 56.5535 15.522 56.7735 14.95L60.1835 5.6H62.9555L56.7515 21H54.4415ZM68.9758 21L74.9378 5.6H77.3578L83.2758 21H80.7458L77.2258 11.716C77.1818 11.6133 77.0938 11.364 76.9618 10.968C76.8444 10.572 76.7051 10.132 76.5438 9.648C76.3824 9.164 76.2358 8.724 76.1038 8.328C75.9718 7.91733 75.8838 7.65333 75.8398 7.536L76.3458 7.514C76.2578 7.76333 76.1478 8.07867 76.0158 8.46C75.8984 8.84133 75.7664 9.24467 75.6198 9.67C75.4878 10.0953 75.3558 10.4987 75.2238 10.88C75.0918 11.2467 74.9818 11.5547 74.8938 11.804L71.3958 21H68.9758ZM71.6158 17.172L72.4958 14.884H79.4918L80.5038 17.172H71.6158ZM92.5861 21V5.6H94.7201L104.136 18.206L103.784 18.404C103.725 18.0373 103.674 17.6413 103.63 17.216C103.586 16.776 103.542 16.314 103.498 15.83C103.469 15.3313 103.439 14.8107 103.41 14.268C103.395 13.7107 103.381 13.1313 103.366 12.53C103.351 11.9287 103.344 11.3053 103.344 10.66V5.6H105.72V21H103.542L94.2801 8.856L94.5221 8.548C94.5954 9.44267 94.6541 10.2053 94.6981 10.836C94.7567 11.452 94.8007 11.98 94.8301 12.42C94.8741 12.8453 94.9034 13.1973 94.9181 13.476C94.9327 13.74 94.9401 13.96 94.9401 14.136C94.9547 14.312 94.9621 14.466 94.9621 14.598V21H92.5861ZM116.631 21V5.6H118.765L128.181 18.206L127.829 18.404C127.771 18.0373 127.719 17.6413 127.675 17.216C127.631 16.776 127.587 16.314 127.543 15.83C127.514 15.3313 127.485 14.8107 127.455 14.268C127.441 13.7107 127.426 13.1313 127.411 12.53C127.397 11.9287 127.389 11.3053 127.389 10.66V5.6H129.765V21H127.587L118.325 8.856L118.567 8.548C118.641 9.44267 118.699 10.2053 118.743 10.836C118.802 11.452 118.846 11.98 118.875 12.42C118.919 12.8453 118.949 13.1973 118.963 13.476C118.978 13.74 118.985 13.96 118.985 14.136C119 14.312 119.007 14.466 119.007 14.598V21H116.631ZM139.071 21L145.033 5.6H147.453L153.371 21H150.841L147.321 11.716C147.277 11.6133 147.189 11.364 147.057 10.968C146.939 10.572 146.8 10.132 146.639 9.648C146.477 9.164 146.331 8.724 146.199 8.328C146.067 7.91733 145.979 7.65333 145.935 7.536L146.441 7.514C146.353 7.76333 146.243 8.07867 146.111 8.46C145.993 8.84133 145.861 9.24467 145.715 9.67C145.583 10.0953 145.451 10.4987 145.319 10.88C145.187 11.2467 145.077 11.5547 144.989 11.804L141.491 21H139.071ZM141.711 17.172L142.591 14.884H149.587L150.599 17.172H141.711Z" fill="white"/>
</g>
<defs>
<filter id="filter0_d_1176_5859" x="0.174805" y="0.379883" width="161.196" height="31.8403" filterUnits="userSpaceOnUse" color-interpolation-filters="sRGB">
<feFlood flood-opacity="0" result="BackgroundImageFix"/>
<feColorMatrix in="SourceAlpha" type="matrix" values="0 0 0 0 0 0 0 0 0 0 0 0 0 0 0 0 0 0 127 0" result="hardAlpha"/>
<feOffset dy="3"/>
<feGaussianBlur stdDeviation="4"/>
<feComposite in2="hardAlpha" operator="out"/>
<feColorMatrix type="matrix" values="0 0 0 0 0 0 0 0 0 0 0 0 0 0 0 0 0 0 0.3 0"/>
<feBlend mode="normal" in2="BackgroundImageFix" result="effect1_dropShadow_1176_5859"/>
<feBlend mode="normal" in="SourceGraphic" in2="effect1_dropShadow_1176_5859" result="shape"/>
</filter>
</defs>
</svg>
